<?xml version="1.0" encoding="UTF-8"?>
<!DOCTYPE svg PUBLIC "-//W3C//DTD SVG 1.1//EN" "http://www.w3.org/Graphics/SVG/1.1/DTD/svg11.dtd">
<!-- Creator: CorelDRAW -->
<svg xmlns="http://www.w3.org/2000/svg" xml:space="preserve" width="73.4906mm" height="12.1918mm" version="1.1" style="shape-rendering:geometricPrecision; text-rendering:geometricPrecision; image-rendering:optimizeQuality; fill-rule:evenodd; clip-rule:evenodd"
viewBox="0 0 7349.06 1219.18"
 xmlns:xlink="http://www.w3.org/1999/xlink"
 xmlns:xodm="http://www.corel.com/coreldraw/odm/2003">
 <defs>
  <style type="text/css">
   <![CDATA[
    .str0 {stroke:#FEFEFE;stroke-width:20;stroke-miterlimit:22.9256}
    .fil1 {fill:#0D6EFD}
    .fil0 {fill:#0D6EFD;fill-rule:nonzero}
   ]]>
  </style>
 </defs>
 <g id="Layer_x0020_1">
  <metadata id="CorelCorpID_0Corel-Layer"/>
  <g id="_2221054695488">
   <path class="fil0 str0" d="M1451.83 1005.02c-1.49,4.07 -3.52,7.41 -6.13,9.82 -2.41,2.58 -5.94,4.62 -10.58,5.93 -4.45,1.48 -10.2,2.58 -17.45,3.15 -7.04,0.55 -15.95,0.74 -26.91,0.74 -7.97,0 -14.84,0 -20.78,-0.19 -6.13,-0.19 -11.15,-0.74 -15.6,-1.48 -4.27,-0.74 -7.98,-1.48 -11.14,-2.41 -3.15,-0.93 -5.75,-2.04 -7.8,-3.52 -2.22,-1.48 -3.88,-3.15 -5.19,-5.19 -1.3,-2.04 -2.42,-4.45 -3.53,-7.23l-230.16 -652.9c-2.78,-7.96 -4.27,-14.26 -4.46,-19.26 -0.18,-4.82 1.3,-8.53 4.46,-11.13 3.35,-2.39 8.54,-4.06 15.77,-4.8 7.24,-0.75 17.08,-1.12 29.52,-1.12 10.03,0 18.19,0.19 24.13,0.74 5.94,0.56 10.58,1.67 13.93,3.15 3.14,1.29 5.56,3.34 7.23,5.56 1.67,2.41 3.16,5.38 4.64,9.08l201.76 591.38 1.12 0 196.39 -590.27c0.92,-4.07 2.23,-7.41 3.71,-9.82 1.49,-2.59 4.08,-4.64 7.61,-5.93 3.71,-1.48 8.72,-2.59 15.21,-3.15 6.51,-0.55 15.22,-0.74 26.18,-0.74 11.14,0 20.04,0.37 26.55,1.3 6.49,0.92 10.94,2.59 13.36,5.19 2.42,2.59 3.33,6.29 2.78,11.11 -0.55,5 -2.23,11.3 -5.2,19.27l-229.42 652.72zm698.48 -262.9c0,14.07 -3.53,24.08 -10.59,30.2 -7.04,5.92 -15.22,8.89 -24.3,8.89l-321.49 0c0,27.23 2.78,51.68 8.16,73.36 5.39,21.86 14.48,40.58 27.29,56.14 12.62,15.56 29.14,27.41 49.37,35.75 20.42,8.34 45.29,12.61 74.61,12.61 23.22,0 44,-1.86 62,-5.75 18.2,-3.71 33.97,-7.96 47.16,-12.6 13.17,-4.63 24.13,-8.89 32.66,-12.59 8.54,-3.89 14.86,-5.75 19.31,-5.75 2.59,0 4.82,0.56 6.87,1.86 1.85,1.29 3.52,3.15 4.45,5.73 1.11,2.42 2.04,5.93 2.59,10.39 0.57,4.62 0.74,9.99 0.74,16.49 0,4.62 -0.17,8.7 -0.55,12.22 -0.36,3.34 -0.74,6.49 -1.29,9.07 -0.56,2.79 -1.49,5.19 -2.8,7.41 -1.29,2.05 -2.78,4.08 -4.82,6.12 -2.03,2.05 -7.99,5.18 -17.63,9.64 -9.84,4.62 -22.46,8.89 -38.05,13.34 -15.6,4.26 -33.6,8.15 -54.02,11.49 -20.42,3.52 -42.13,5.19 -65.33,5.19 -40.29,0 -75.36,-5.57 -105.62,-16.87 -30.26,-11.11 -55.68,-27.79 -76.29,-49.84 -20.61,-22.23 -36.2,-49.84 -46.59,-83.18 -10.58,-33.16 -15.77,-71.89 -15.77,-116.17 0,-41.86 5.37,-79.66 16.33,-113.2 10.77,-33.34 26.54,-61.89 46.96,-85.23 20.42,-23.35 45.29,-41.13 74.24,-53.72 28.96,-12.42 61.45,-18.71 97.26,-18.71 38.42,0 71.1,6.11 98.02,18.52 27.1,12.23 49.18,28.91 66.63,49.65 17.26,20.76 30.07,45.21 38.25,73.38 8.16,27.97 12.24,57.99 12.24,89.84l0 16.32zm-90.21 -26.5c1.11,-47.07 -9.28,-84.11 -31.38,-110.98 -22.07,-26.86 -54.56,-40.2 -97.81,-40.2 -22.27,0 -41.77,4.07 -58.46,12.41 -16.71,8.34 -30.64,19.45 -41.96,33.35 -11.33,13.71 -20.04,29.82 -26.17,47.98 -6.13,18.35 -9.65,37.42 -10.39,57.44l266.17 0zm513.98 -164.89c0,7.96 -0.19,14.63 -0.55,20 -0.38,5.38 -1.12,9.63 -2.23,12.78 -0.93,3.16 -2.41,5.38 -4.09,7.05 -1.48,1.67 -3.71,2.41 -6.68,2.41 -2.97,0 -6.49,-0.74 -10.58,-2.41 -4.26,-1.67 -8.91,-3.34 -14.1,-4.82 -5.2,-1.66 -11.15,-3.14 -17.64,-4.64 -6.49,-1.48 -13.55,-2.22 -21.16,-2.22 -9.1,0 -18.01,1.86 -26.74,5.38 -8.53,3.7 -17.81,9.64 -27.27,18.15 -9.66,8.34 -19.68,19.45 -30.26,33.17 -10.39,13.9 -22.09,30.75 -34.71,50.77l0 321.44c0,2.97 -0.74,5.38 -2.23,7.41 -1.48,1.86 -3.71,3.71 -7.05,5.19 -3.35,1.3 -7.8,2.41 -13.74,3.15 -5.75,0.74 -13.17,1.12 -22.27,1.12 -8.91,0 -16.15,-0.38 -21.9,-1.12 -5.94,-0.74 -10.58,-1.85 -13.93,-3.15 -3.52,-1.48 -5.94,-3.33 -7.23,-5.19 -1.3,-2.03 -1.87,-4.44 -1.87,-7.41l0 -488.74c0,-2.97 0.57,-5.38 1.68,-7.41 1.12,-1.86 3.15,-3.71 6.49,-5.38 3.34,-1.67 7.43,-2.77 12.63,-3.34 5.01,-0.55 11.88,-0.74 20.23,-0.74 7.98,0 14.67,0.19 19.87,0.74 5.37,0.57 9.46,1.67 12.42,3.34 2.78,1.67 5.01,3.52 6.32,5.38 1.11,2.03 1.85,4.44 1.85,7.41l0 71.13c13.37,-19.62 25.99,-35.56 37.68,-47.98 11.89,-12.23 23.02,-22.05 33.41,-29.08 10.58,-7.05 20.98,-11.85 31.19,-14.64 10.39,-2.78 20.79,-4.07 31.37,-4.07 4.64,0 10.02,0.17 15.96,0.74 5.94,0.55 12.26,1.66 18.75,2.96 6.5,1.48 12.44,3.16 17.64,5 5.19,1.86 8.9,3.52 11.13,5.37 2.23,1.85 3.71,3.52 4.26,5.19 0.75,1.67 1.49,3.71 2.06,6.12 0.55,2.58 0.91,6.3 1.1,11.11 0.19,5.01 0.19,11.49 0.19,19.83zm192.3 457.06c0,2.97 -0.74,5.38 -2.23,7.41 -1.48,1.86 -3.71,3.71 -7.06,5.19 -3.34,1.3 -7.8,2.41 -13.73,3.15 -5.75,0.74 -13.18,1.12 -22.27,1.12 -8.91,0 -16.16,-0.38 -21.91,-1.12 -5.93,-0.74 -10.58,-1.85 -13.92,-3.15 -3.53,-1.48 -5.94,-3.33 -7.24,-5.19 -1.29,-2.03 -1.86,-4.44 -1.86,-7.41l0 -488.74c0,-2.6 0.57,-5 1.86,-7.05 1.3,-2.22 3.71,-4.07 7.24,-5.55 3.34,-1.31 7.99,-2.41 13.92,-3.15 5.75,-0.74 13,-1.12 21.91,-1.12 9.09,0 16.52,0.38 22.27,1.12 5.93,0.74 10.39,1.84 13.73,3.15 3.35,1.48 5.58,3.33 7.06,5.55 1.49,2.05 2.23,4.45 2.23,7.05l0 488.74zm10.01 -653.45c0,21.12 -4.07,35.39 -12.06,42.99 -7.98,7.58 -22.65,11.47 -44.17,11.47 -21.16,0 -35.65,-3.7 -43.43,-11.11 -7.8,-7.41 -11.7,-21.48 -11.7,-42.24 0,-21.12 4.09,-35.39 12.06,-42.99 7.98,-7.59 22.65,-11.49 44.19,-11.49 21.14,0 35.62,3.72 43.43,11.13 7.8,7.41 11.68,21.48 11.68,42.24zm423.78 -36.31c0,6.85 -0.38,12.4 -1.12,16.67 -0.75,4.07 -1.49,7.41 -2.42,10 -0.93,2.41 -2.04,4.27 -3.52,5.2 -1.49,0.74 -3.35,1.29 -5.39,1.29 -2.59,0 -5.74,-0.74 -9.65,-2.41 -3.9,-1.67 -8.35,-3.52 -13.92,-5.56 -5.39,-1.85 -11.88,-3.71 -19.3,-5.38 -7.42,-1.65 -16.16,-2.4 -25.99,-2.4 -13.36,0 -24.88,2.23 -34.34,6.48 -9.28,4.45 -17.08,11.3 -22.83,20.57 -5.75,9.26 -10.03,21.12 -12.43,35.94 -2.61,14.64 -3.9,32.61 -3.9,53.74l0 53.35 109.14 0c2.78,0 5.19,0.55 7.25,1.85 2.03,1.3 3.71,3.53 5.37,6.49 1.67,3.15 2.96,7.03 3.9,11.85 0.93,4.64 1.29,10.38 1.29,17.23 0,13.16 -1.66,22.61 -4.82,28.36 -3.34,5.74 -7.61,8.7 -12.99,8.7l-109.14 0 0 427.79c0,2.97 -0.74,5.38 -2.23,7.41 -1.48,1.86 -3.9,3.71 -7.25,5.19 -3.52,1.3 -8.16,2.41 -13.91,3.15 -5.76,0.74 -12.99,1.12 -21.71,1.12 -8.73,0 -15.97,-0.38 -21.73,-1.12 -5.75,-0.74 -10.39,-1.85 -13.91,-3.15 -3.35,-1.48 -5.77,-3.33 -7.25,-5.19 -1.49,-2.03 -2.23,-4.44 -2.23,-7.41l0 -427.79 -69.42 0c-5.75,0 -10.2,-2.96 -12.98,-8.7 -2.99,-5.75 -4.47,-15.2 -4.47,-28.36 0,-6.85 0.38,-12.59 1.12,-17.23 0.74,-4.82 1.85,-8.7 3.35,-11.85 1.29,-2.96 3.14,-5.19 5.37,-6.49 2.22,-1.3 4.83,-1.85 7.61,-1.85l69.42 0 0 -50.58c0,-34.27 3.16,-63.55 9.48,-88 6.49,-24.46 16.14,-44.66 29.13,-60.21 13.19,-15.58 29.52,-27.24 49.38,-34.65 19.68,-7.41 43.07,-11.11 69.98,-11.11 12.61,0 25.06,1.1 36.93,3.51 12.07,2.41 21.35,4.82 27.85,7.6 6.49,2.77 10.77,5.19 12.99,7.41 2.23,2.03 4.08,4.99 5.39,8.34 1.48,3.51 2.59,7.59 3.16,12.59 0.55,4.82 0.74,10.75 0.74,17.61zm299.38 703.29l-65.14 179.89c-2.23,5.76 -7.8,10.2 -16.71,13.34 -8.73,3.15 -22.28,4.63 -40.47,4.63 -9.46,0 -17.07,-0.36 -22.82,-1.29 -5.77,-0.93 -10.22,-2.6 -13.38,-4.63 -2.97,-2.23 -4.63,-5.19 -5,-8.7 -0.37,-3.71 0.55,-7.98 2.6,-13.17l67.56 -170.07c-3.33,-1.48 -6.49,-3.9 -9.29,-7.05 -2.96,-3.32 -5,-6.67 -5.93,-10.37l-174.66 -466.88c-2.97,-7.6 -4.28,-13.72 -4.28,-17.97 0,-4.45 1.31,-7.79 4.28,-10.38 2.97,-2.6 7.61,-4.27 14.1,-5.18 6.49,-0.93 15.22,-1.31 26.17,-1.31 10.77,0 19.31,0.19 25.61,0.74 6.13,0.57 10.96,1.67 14.67,3.15 3.52,1.3 6.13,3.52 7.8,6.12 1.66,2.77 3.34,6.48 5.2,11.11l139.77 392.05 1.66 0 134.77 -394.08c2.23,-7.05 4.82,-11.49 7.97,-13.34 2.97,-2.05 7.62,-3.53 13.74,-4.44 6.32,-0.93 15.23,-1.31 26.74,-1.31 10.2,0 18.55,0.38 25.05,1.31 6.5,0.91 11.32,2.58 14.29,5.18 3.16,2.59 4.64,5.93 4.64,10.38 0,4.25 -1.11,9.82 -3.16,16.29l-175.78 485.98zm1056.73 -14.08c0,2.96 -0.74,5.55 -2.22,7.6 -1.49,2.22 -4.09,3.88 -7.8,5.18 -3.72,1.3 -8.53,2.42 -14.3,3.33 -5.74,0.93 -13.36,1.31 -22.64,1.31 -8.72,0 -16.14,-0.38 -22.27,-1.31 -6.13,-0.91 -10.96,-2.03 -14.48,-3.33 -3.52,-1.3 -6.13,-2.96 -7.61,-5.18 -1.49,-2.05 -2.23,-4.64 -2.23,-7.6l0 -611.96 -1.12 0 -247.79 614.74c-0.93,2.6 -2.61,4.63 -4.45,6.47 -2.06,1.86 -5.03,3.35 -8.74,4.64 -3.88,1.31 -8.35,2.22 -13.72,2.79 -5.21,0.55 -11.51,0.74 -18.76,0.74 -7.61,0 -14.1,-0.38 -19.49,-1.12 -5.38,-0.74 -10.01,-1.67 -13.55,-2.96 -3.71,-1.3 -6.49,-2.78 -8.54,-4.64 -1.85,-1.84 -3.33,-3.7 -4.08,-5.92l-237.22 -614.74 -0.55 0 0 611.96c0,2.96 -0.75,5.55 -2.23,7.6 -1.49,2.22 -4.09,3.88 -7.8,5.18 -3.71,1.3 -8.72,2.42 -14.66,3.33 -5.93,0.93 -13.55,1.31 -22.83,1.31 -9.1,0 -16.52,-0.38 -22.46,-1.31 -5.94,-0.91 -10.77,-2.03 -14.29,-3.33 -3.54,-1.3 -5.94,-2.96 -7.25,-5.18 -1.29,-2.05 -2.04,-4.64 -2.04,-7.6l0 -646.05c0,-15.37 4.09,-26.12 12.07,-32.6 8.16,-6.5 17.26,-9.82 27.1,-9.82l57.54 0c11.69,0 22.1,1.1 30.81,3.32 8.91,2.05 16.52,5.57 23.2,10.2 6.68,4.81 12.26,10.75 16.52,17.97 4.46,7.22 8.36,15.75 11.7,25.57l201.4 508.76 2.78 0 209 -507.28c4.09,-10.75 8.55,-20 13.38,-27.6 4.82,-7.6 10.01,-13.71 15.77,-18.16 5.56,-4.63 12.07,-7.79 18.94,-9.82 7.04,-2.03 15.21,-2.96 24.3,-2.96l60.33 0c5.38,0 10.77,0.74 15.77,2.41 4.84,1.66 9.1,4.26 12.64,7.6 3.52,3.51 6.3,7.77 8.53,13.14 2.22,5.19 3.34,11.68 3.34,19.27l0 646.05zm545.72 1.1c0,4.28 -1.48,7.6 -4.27,9.82 -2.97,2.23 -6.86,3.71 -12.07,4.83 -5.01,1.1 -12.43,1.67 -22.27,1.67 -9.28,0 -16.89,-0.57 -22.45,-1.67 -5.58,-1.12 -9.67,-2.6 -12.26,-4.83 -2.6,-2.22 -3.9,-5.37 -3.9,-9.82l0 -48.91c-21.35,22.8 -45.1,40.58 -71.46,53.19 -26.35,12.4 -54.19,18.71 -83.54,18.71 -25.78,0 -49.17,-3.35 -69.97,-10.01 -20.78,-6.67 -38.61,-16.49 -53.27,-29.09 -14.67,-12.6 -26.16,-28.35 -34.34,-46.68 -8.17,-18.54 -12.24,-39.47 -12.24,-63.01 0,-27.6 5.56,-51.49 16.88,-71.7 11.13,-20.36 27.29,-37.23 48.45,-50.57 20.97,-13.35 46.77,-23.53 77.22,-30.2 30.43,-6.66 64.78,-10.01 102.82,-10.01l67.58 0 0 -38.16c0,-18.71 -2.04,-35.38 -5.94,-50.03 -4.09,-14.45 -10.41,-26.49 -19.31,-36.12 -8.91,-9.63 -20.42,-16.87 -34.53,-21.68 -14.1,-5.01 -31.55,-7.41 -52.16,-7.41 -22.09,0 -41.94,2.59 -59.39,7.96 -17.64,5.38 -33.04,11.12 -46.22,17.61 -13.17,6.48 -24.32,12.22 -33.23,17.59 -8.72,5.38 -15.4,7.98 -19.68,7.98 -2.96,0 -5.56,-0.74 -7.61,-2.23 -2.22,-1.3 -4.07,-3.53 -5.75,-6.49 -1.67,-2.77 -2.78,-6.48 -3.52,-10.92 -0.74,-4.64 -1.12,-9.46 -1.12,-15.01 0,-8.89 0.55,-16.12 1.86,-21.31 1.3,-5.18 4.46,-10.18 9.27,-14.82 4.84,-4.63 13.38,-10.19 25.26,-16.67 11.87,-6.31 25.8,-12.23 41.39,-17.61 15.41,-5.18 32.48,-9.63 51.04,-13.15 18.38,-3.53 37.12,-5.18 55.87,-5.18 35.09,0 64.97,3.88 89.66,11.85 24.69,7.96 44.54,19.83 59.76,35.2 15.22,15.38 26.18,34.46 33.05,57.25 6.86,22.79 10.39,49.46 10.39,79.85l0 329.78zm-89.09 -223.81l-76.67 0c-24.5,0 -45.85,2.05 -64.04,6.31 -18,4.08 -33.04,10.37 -45.1,18.52 -11.88,8.16 -20.61,17.79 -26.36,29.29 -5.57,11.47 -8.35,24.63 -8.35,39.45 0,25.38 7.97,45.58 24.13,60.59 16.15,15.01 38.61,22.6 67.75,22.6 23.38,0 45.29,-5.92 65.34,-17.97 20.04,-11.86 41.2,-30.2 63.3,-54.85l0 -103.94zm344.13 223.26c0,2.97 -0.74,5.38 -2.22,7.41 -1.49,1.86 -3.71,3.71 -7.06,5.19 -3.35,1.3 -7.8,2.41 -13.74,3.15 -5.75,0.74 -13.17,1.12 -22.27,1.12 -8.9,0 -16.15,-0.38 -21.9,-1.12 -5.94,-0.74 -10.58,-1.85 -13.93,-3.15 -3.52,-1.48 -5.94,-3.33 -7.23,-5.19 -1.3,-2.03 -1.87,-4.44 -1.87,-7.41l0 -488.74c0,-2.6 0.57,-5 1.87,-7.05 1.29,-2.22 3.71,-4.07 7.23,-5.55 3.35,-1.31 7.99,-2.41 13.93,-3.15 5.75,-0.74 13,-1.12 21.9,-1.12 9.1,0 16.52,0.38 22.27,1.12 5.94,0.74 10.39,1.84 13.74,3.15 3.35,1.48 5.57,3.33 7.06,5.55 1.48,2.05 2.22,4.45 2.22,7.05l0 488.74zm10.02 -653.45c0,21.12 -4.08,35.39 -12.07,42.99 -7.97,7.58 -22.64,11.47 -44.17,11.47 -21.16,0 -35.64,-3.7 -43.43,-11.11 -7.8,-7.41 -11.7,-21.48 -11.7,-42.24 0,-21.12 4.09,-35.39 12.07,-42.99 7.97,-7.59 22.64,-11.49 44.18,-11.49 21.15,0 35.63,3.72 43.43,11.13 7.8,7.41 11.69,21.48 11.69,42.24zm245.58 653.45c0,2.97 -0.75,5.38 -2.23,7.41 -1.49,1.86 -3.71,3.71 -7.06,5.19 -3.35,1.3 -7.8,2.41 -13.74,3.15 -5.75,0.74 -13.17,1.12 -22.27,1.12 -8.9,0 -16.15,-0.38 -21.9,-1.12 -5.94,-0.74 -10.58,-1.85 -13.93,-3.15 -3.52,-1.48 -5.93,-3.33 -7.23,-5.19 -1.3,-2.03 -1.86,-4.44 -1.86,-7.41l0 -724.96c0,-2.98 0.56,-5.56 1.86,-7.6 1.3,-2.22 3.71,-4.08 7.23,-5.56 3.35,-1.3 7.99,-2.41 13.93,-3.15 5.75,-0.75 13,-1.11 21.9,-1.11 9.1,0 16.52,0.36 22.27,1.11 5.94,0.74 10.39,1.85 13.74,3.15 3.35,1.48 5.57,3.34 7.06,5.56 1.48,2.04 2.23,4.62 2.23,7.6l0 724.96zm578.56 -187.49c0,32.04 -5.57,61.14 -16.89,87.07 -11.14,25.76 -27.29,48 -48.45,66.52 -20.97,18.34 -46.95,32.61 -77.78,42.43 -30.81,9.99 -65.52,15.01 -104.3,15.01 -23.58,0 -45.67,-1.86 -66.09,-5.76 -20.42,-3.7 -38.61,-8.15 -54.56,-13.33 -15.97,-5.38 -29.34,-10.75 -39.74,-16.3 -10.58,-5.56 -17.26,-9.65 -19.86,-12.04 -2.78,-2.6 -4.82,-5.19 -6.3,-7.6 -1.49,-2.6 -2.78,-5.56 -3.71,-9.27 -1.12,-3.51 -2.06,-7.96 -2.61,-13.15 -0.55,-5.2 -0.74,-11.67 -0.74,-19.27 0,-12.79 1.29,-21.86 3.9,-26.86 2.6,-5.01 6.32,-7.6 11.13,-7.6 3.35,0 10.03,2.96 19.87,8.7 9.84,5.75 22.45,11.87 37.87,18.54 15.39,6.67 33.4,12.78 54.2,18.52 20.6,5.74 43.61,8.72 68.86,8.72 24.5,0 46.04,-3.16 64.59,-9.27 18.56,-6.12 34.35,-14.82 46.97,-26.12 12.62,-11.3 22.09,-24.65 28.39,-40.02 6.32,-15.39 9.48,-32.06 9.48,-50.22 0,-20 -4.09,-37.97 -12.07,-53.91 -7.99,-15.93 -19.86,-29.82 -35.45,-41.31 -15.41,-11.68 -34.54,-20.57 -57.18,-26.69 -22.65,-6.11 -48.44,-9.25 -77.21,-9.25l-69.06 0c-2.97,0 -5.94,-0.57 -8.72,-1.86 -2.79,-1.29 -5.19,-3.34 -7.24,-6.3 -2.04,-2.78 -3.71,-6.67 -5.01,-11.31 -1.3,-4.63 -2.04,-10.73 -2.04,-18.33 0,-6.86 0.56,-12.42 1.68,-17.05 1.1,-4.45 2.59,-7.96 4.62,-10.74 2.06,-2.6 4.28,-4.63 6.7,-5.94 2.59,-1.29 5.56,-1.84 8.72,-1.84l61.62 0c23.76,0 45.29,-3.16 64.41,-9.27 18.94,-6.12 35.08,-15.01 48.45,-26.67 13.17,-11.49 23.39,-25.4 30.43,-41.51 7.06,-16.12 10.58,-34.09 10.58,-54.09 0,-14.46 -2.4,-28.17 -7.04,-41.51 -4.64,-13.16 -11.7,-24.65 -21.16,-34.47 -9.48,-9.82 -21.54,-17.4 -36.2,-23.15 -14.67,-5.55 -31.55,-8.34 -50.67,-8.34 -21.16,0 -40.29,3.15 -57.91,9.63 -17.64,6.3 -33.23,13.16 -46.97,20.38 -13.74,7.24 -25.25,14.09 -34.34,20.38 -8.91,6.5 -15.4,9.65 -18.94,9.65 -2.59,0 -4.82,-0.38 -6.85,-1.31 -1.87,-0.91 -3.54,-2.77 -4.83,-5.55 -1.3,-2.6 -2.23,-6.49 -2.78,-11.3 -0.57,-4.82 -0.75,-11.3 -0.75,-19.28 0,-5.37 0.18,-10.18 0.56,-14.45 0.36,-4.07 1.1,-7.77 2.22,-10.74 1.11,-3.15 2.23,-5.92 3.71,-8.52 1.49,-2.42 3.9,-5.38 7.43,-8.89 3.34,-3.34 10.39,-8.34 20.79,-14.82 10.58,-6.68 23.57,-12.97 38.98,-19.28 15.41,-6.48 33.23,-11.66 53.27,-16.11 20.05,-4.27 41.76,-6.49 64.96,-6.49 32.68,0 61.26,4.08 85.94,12.42 24.51,8.34 45.12,20.19 61.64,35.39 16.52,15 28.77,33.16 36.94,54.46 8.16,21.12 12.25,44.46 12.25,70.22 0,22.05 -2.98,42.43 -8.73,61.5 -5.75,18.9 -14.29,35.77 -25.62,50.41 -11.13,14.63 -25.06,27.05 -41.39,37.42 -16.33,10.37 -35.09,17.42 -56.42,21.31l0 1.11c24.13,2.6 46.39,8.7 66.45,18.15 20.04,9.63 37.3,21.68 51.78,36.13 14.48,14.46 25.81,31.49 33.97,50.77 8.16,19.45 12.25,40.01 12.25,62.25zm587.86 -26.69c0,30.76 -4.64,60.4 -14.12,89.31 -9.46,28.72 -23.94,54.1 -43.62,75.96 -19.48,21.86 -44.36,39.47 -74.42,52.62 -30.07,13.16 -65.52,19.83 -106.55,19.83 -29.33,0 -55.32,-3.71 -77.78,-10.94 -22.45,-7.22 -41.94,-17.42 -58.65,-30.94 -16.71,-13.34 -30.63,-29.83 -41.58,-49.28 -11.13,-19.64 -20.04,-41.88 -26.73,-66.88 -6.68,-24.82 -11.5,-52.25 -14.47,-81.9 -2.79,-29.63 -4.28,-61.51 -4.28,-95.6 0,-30.01 1.67,-60.4 4.83,-91.15 3.34,-30.76 9.1,-60.41 17.45,-89.11 8.36,-28.54 19.68,-55.4 33.97,-80.59 14.48,-25.02 32.3,-47.07 54.01,-65.59 21.54,-18.71 47.33,-33.54 77.41,-44.29 30.07,-10.93 65.14,-16.3 105.05,-16.3 13.38,0 27.1,0.74 40.84,2.41 13.74,1.67 26.54,3.89 38.06,6.48 11.68,2.79 21.33,5.75 29.32,9.08 7.98,3.15 13.36,5.93 15.78,7.78 2.6,2.04 4.45,4.26 5.75,6.67 1.31,2.22 2.22,4.83 2.97,7.6 0.74,2.6 1.31,5.74 1.67,9.27 0.38,3.32 0.55,7.59 0.55,12.59 0,6.67 0,12.23 -0.17,16.87 -0.19,4.81 -0.93,8.51 -2.23,11.47 -1.31,2.97 -2.97,5.02 -5.02,6.5 -1.85,1.48 -4.45,2.22 -7.79,2.22 -4.09,0 -9.47,-1.31 -16.34,-3.89 -6.87,-2.42 -15.22,-5.19 -25.06,-8.34 -9.83,-3.15 -21.72,-5.93 -35.63,-8.34 -13.93,-2.59 -30.07,-3.89 -48.64,-3.89 -33.78,0 -62.74,6.85 -87.04,20.57 -24.32,13.88 -44.19,32.23 -59.59,55.39 -15.41,23.17 -26.92,50.03 -34.34,80.59 -7.43,30.58 -11.69,62.44 -12.81,95.79 9.46,-5.38 20.04,-10.75 31.93,-16.3 11.69,-5.38 24.49,-10.2 38.61,-14.64 13.91,-4.26 28.58,-7.78 44.17,-10.56 15.59,-2.78 32.3,-4.07 50.13,-4.07 38.04,0 70.16,5.18 96.14,15.37 26.16,10.37 47.15,24.65 63.29,42.98 16.16,18.35 27.67,39.83 34.52,64.66 6.87,24.65 10.41,51.51 10.41,80.59zm-94.67 8.34c0,-21.12 -2.04,-40.19 -6.31,-57.42 -4.08,-17.06 -11.14,-31.68 -20.79,-43.73 -9.84,-11.87 -22.84,-21.12 -39.17,-27.61 -16.33,-6.48 -36.38,-9.82 -60.32,-9.82 -13.36,0 -26.91,1.12 -40.29,3.53 -13.36,2.39 -26.35,5.55 -38.78,9.82 -12.63,4.06 -24.51,9.08 -36.02,14.63 -11.33,5.56 -21.72,11.68 -31.18,18.15 0,46.88 2.97,85.97 8.91,117.47 6.13,31.49 14.67,56.69 26.17,75.77 11.32,19.08 25.61,32.61 42.7,40.76 17.07,8.15 36.94,12.23 59.77,12.23 23.2,0 43.24,-4.26 60.33,-12.97 17.07,-8.7 31.17,-20.38 42.3,-35.2 11.33,-14.64 19.51,-31.13 24.89,-49.46 5.2,-18.16 7.79,-36.87 7.79,-56.15zm664.69 -133.57c0,53.91 -4.26,103.2 -12.8,147.66 -8.53,44.47 -22.65,82.63 -42.33,114.67 -19.85,32.06 -45.65,56.7 -77.58,74.31 -31.92,17.59 -71.27,26.31 -118.05,26.31 -44.18,0 -81.31,-7.79 -111.74,-23.54 -30.26,-15.74 -54.58,-38.9 -73.13,-69.48 -18.38,-30.56 -31.55,-68.17 -39.36,-112.83 -7.8,-44.65 -11.7,-95.97 -11.7,-153.77 0,-53.55 4.28,-102.65 13,-147.29 8.73,-44.65 22.83,-83 42.51,-115.05 19.49,-32.06 45.29,-56.7 77.21,-74.3 31.93,-17.6 71.09,-26.31 117.51,-26.31 44.54,0 81.85,7.79 112.29,23.53 30.26,15.75 54.58,38.9 73.13,69.48 18.39,30.57 31.56,68.18 39.36,112.83 7.78,44.66 11.68,95.96 11.68,153.78zm-95.77 6.48c0,-35.01 -1.3,-66.52 -3.72,-94.31 -2.59,-27.79 -6.3,-52.43 -11.32,-73.74 -4.82,-21.31 -11.13,-39.64 -18.93,-55.02 -7.79,-15.2 -17.07,-27.98 -28.03,-37.8 -10.76,-9.99 -23.2,-17.23 -37.11,-21.67 -14.12,-4.64 -29.71,-6.86 -47.16,-6.86 -30.81,0 -55.68,7.23 -74.99,21.67 -19.11,14.46 -34.34,34.29 -45.28,59.66 -11.15,25.21 -18.57,54.84 -22.65,88.94 -3.9,33.9 -5.95,70.41 -5.95,109.5 0,52.23 2.8,96.89 8.18,133.57 5.37,36.69 14.1,66.52 25.79,89.67 11.7,23.17 26.73,40.02 45.12,50.39 18.36,10.57 40.46,15.77 66.62,15.77 20.23,0 38.06,-3.35 53.46,-9.82 15.41,-6.5 28.6,-15.75 39.73,-27.81 10.94,-12.22 20.23,-26.67 27.46,-43.71 7.25,-17.05 13,-35.76 17.45,-56.33 4.28,-20.56 7.25,-42.99 8.91,-66.88 1.67,-24.09 2.42,-49.1 2.42,-75.22z"/>
   <path class="fil1 str0" d="M42.5 970.29c-17.52,15.74 -38.38,31.24 -42.23,43.26l1042.05 0.01c-8.22,-17.8 -194.15,-176.34 -217.99,-195.36 -11.03,-8.8 -13.13,-13.72 -23.8,-23.04l-95.57 -82.47c-14.54,-10.86 -34.94,-29.87 -46.23,-42.68 -29.24,13.35 -44.63,36.7 -70.06,55.75 -71.37,53.48 -48.48,97.2 -172.71,-27.85 -11.22,-11.29 -18.96,-18.07 -37.22,-24.19l-336.24 296.57z"/>
   <path class="fil1 str0" d="M491.59 247c12.95,-18.83 92.09,-100.96 110.31,-113.8 13.41,5.28 50.01,39.87 55.43,55.66 -10.45,24.77 -62.14,67.02 -83.91,87.48 -24.42,22.95 -61.04,64.68 -89.25,83.9l-101.16 -103.4c7.33,-15.83 34.2,-44.92 50.33,-53.81 26.25,10.15 33.85,29.47 58.25,43.97zm269.06 51.67c35.12,-148.64 -74.24,-269.87 -191.08,-293.34 -149.04,-29.95 -264.35,70.62 -289.95,186.84 -69.16,313.97 404.66,429.76 481.03,106.5z"/>
   <path class="fil1 str0" d="M697.49 633.34c10.47,19.37 27.45,24.54 42.15,39.52 6.96,7.09 286.02,253.98 305.15,263.67l-0.34 -604.98 -346.96 301.79z"/>
   <path class="fil1 str0" d="M0.02 935.65c15.83,-6.03 63.03,-53.32 87.63,-72.32l236.17 -208.56c7.45,-6.45 13.29,-10.06 20.26,-15.2 -21.24,-30.93 -49.64,-45.43 -65.5,-61.07l-237.94 -212.24c-18.04,-16.14 -18.46,-24.15 -40.6,-34.57l-0.02 603.96z"/>
   <path class="fil1 str0" d="M491.59 247c-24.4,-14.5 -32,-33.82 -58.25,-43.97 -16.13,8.89 -43,37.98 -50.33,53.81l101.16 103.4c28.21,-19.22 64.83,-60.95 89.25,-83.9 21.77,-20.46 73.46,-62.71 83.91,-87.48 -5.42,-15.79 -42.02,-50.38 -55.43,-55.66 -18.22,12.84 -97.36,94.97 -110.31,113.8z"/>
  </g>
 </g>
</svg>
